<svg id="visual" viewBox="0 0 900 600" width="900" height="600" xmlns="http://www.w3.org/2000/svg" xmlns:xlink="http://www.w3.org/1999/xlink" version="1.1"><rect width="900" height="600" fill="#000000"></rect><g><g transform="translate(120 379)"><path d="M0 -132.4L125.9 -40.9L77.8 107.1L-77.8 107.1L-125.9 -40.9Z" fill="none" stroke="#ff894f" stroke-width="3"></path></g><g transform="translate(171 5)"><path d="M0 -101L96.1 -31.2L59.4 81.7L-59.4 81.7L-96.1 -31.2Z" fill="none" stroke="#ff894f" stroke-width="3"></path></g><g transform="translate(704 265)"><path d="M0 -83L78.9 -25.6L48.8 67.1L-48.8 67.1L-78.9 -25.6Z" fill="none" stroke="#ff894f" stroke-width="3"></path></g><g transform="translate(404 135)"><path d="M0 -53L50.4 -16.4L31.2 42.9L-31.2 42.9L-50.4 -16.4Z" fill="none" stroke="#ff894f" stroke-width="3"></path></g><g transform="translate(846 550)"><path d="M0 -65L61.8 -20.1L38.2 52.6L-38.2 52.6L-61.8 -20.1Z" fill="none" stroke="#ff894f" stroke-width="3"></path></g><g transform="translate(509 484)"><path d="M0 -105L99.9 -32.4L61.7 84.9L-61.7 84.9L-99.9 -32.4Z" fill="none" stroke="#ff894f" stroke-width="3"></path></g><g transform="translate(878 63)"><path d="M0 -112L106.5 -34.6L65.8 90.6L-65.8 90.6L-106.5 -34.6Z" stroke="#ff894f" fill="none" stroke-width="3"></path></g></g></svg>